<?xml version="1.0" encoding="iso-8859-1"?>
<!-- Generator: Adobe Illustrator 19.0.0, SVG Export Plug-In . SVG Version: 6.00 Build 0)  -->
<svg version="1.1" id="Layer_1" xmlns="http://www.w3.org/2000/svg" xmlns:xlink="http://www.w3.org/1999/xlink" x="0px" y="0px"
	 viewBox="0 0 466.127 466.127" style="enable-background:new 0 0 466.127 466.127;" xml:space="preserve">
<g>
	<path d="M378.255,191.837c-13.975-68.23-74.315-118.253-145.191-118.253S101.847,123.607,87.872,191.837
		C38.375,198.187,0,240.586,0,291.779c0,55.561,45.202,100.763,100.763,100.763h264.602c55.561,0,100.763-45.202,100.763-100.763
		C466.127,240.586,427.752,198.187,378.255,191.837z M365.364,362.542H100.763C61.744,362.542,30,330.798,30,291.779
		s31.746-70.763,70.768-70.763H114.1l1.564-13.24c7.018-59.399,57.488-104.191,117.399-104.191s110.382,44.792,117.399,104.191
		l1.564,13.24h13.332c39.021,0,70.768,31.744,70.768,70.763S404.383,362.542,365.364,362.542z"/>
	<polygon points="202.457,166.936 121.851,247.542 202.457,328.149 223.67,306.936 164.276,247.542 223.67,188.149 	"/>
	<polygon points="242.457,188.149 301.851,247.542 242.457,306.936 263.67,328.149 344.276,247.542 263.67,166.936 	"/>
</g>
<g>
</g>
<g>
</g>
<g>
</g>
<g>
</g>
<g>
</g>
<g>
</g>
<g>
</g>
<g>
</g>
<g>
</g>
<g>
</g>
<g>
</g>
<g>
</g>
<g>
</g>
<g>
</g>
<g>
</g>
</svg>
