<?xml version="1.0" encoding="iso-8859-1"?>
<!-- Generator: Adobe Illustrator 18.1.1, SVG Export Plug-In . SVG Version: 6.00 Build 0)  -->
<svg version="1.1" id="Capa_1" xmlns="http://www.w3.org/2000/svg" xmlns:xlink="http://www.w3.org/1999/xlink" x="0px" y="0px"
	 viewBox="0 0 28.881 28.881" style="enable-background:new 0 0 28.881 28.881;" xml:space="preserve">
<g>
	<path d="M21.121,11.525c-0.062-0.182-0.133-0.357-0.234-0.537l-0.15-0.262c0.342-0.477,0.531-0.992,0.531-1.531v-3.06
		c0-0.416-0.115-0.838-0.344-1.256L20.85,4.748c0.096-0.221,0.16-0.447,0.16-0.686c0-2.478-5.346-3.81-10.377-3.81
		c-5.029,0-10.377,1.332-10.377,3.811c0,0.238,0.064,0.465,0.162,0.686l-0.074,0.13C0.115,5.297,0,5.719,0,6.135v3.061
		c0,0.535,0.191,1.055,0.531,1.531l-0.152,0.262C0.127,11.426,0,11.863,0,12.301v3.061c0,0.525,0.178,1.029,0.504,1.502
		l-0.125,0.215C0.127,17.512,0,17.953,0,18.385v3.066c0,2.717,4.67,4.85,10.633,4.85c1.221,0,2.383-0.096,3.463-0.26
		c-0.07-0.09-0.119-0.195-0.184-0.293c1.57,1.764,3.846,2.881,6.385,2.881c4.734,0,8.584-3.848,8.584-8.578
		C28.881,15.596,25.465,11.941,21.121,11.525z M10.633,1.387c5.725,0,9.238,1.557,9.238,2.676c0,1.115-3.514,2.67-9.238,2.67
		c-5.723,0-9.238-1.555-9.238-2.67C1.395,2.943,4.91,1.387,10.633,1.387z M1.139,6.647c1.705,1.447,5.662,2.195,9.494,2.195
		s7.789-0.748,9.496-2.195v2.549c0,1.756-3.902,3.715-9.496,3.715s-9.494-1.959-9.494-3.715C1.139,9.196,1.139,6.647,1.139,6.647z
		 M1.139,12.482c1.748,1.6,5.338,2.619,9.494,2.619c0.988,0,1.924-0.076,2.83-0.188c-0.699,0.926-1.227,1.982-1.504,3.145
		c-0.076,0.316-0.135,0.639-0.178,0.969c-0.379,0.016-0.748,0.049-1.148,0.049c-5.594,0-9.494-1.959-9.494-3.715
		C1.139,15.361,1.139,12.482,1.139,12.482z M10.633,25.164c-5.594,0-9.494-1.955-9.494-3.713V18.57
		c1.748,1.598,5.338,2.619,9.494,2.619c0.396,0,0.779-0.027,1.164-0.049c0.131,1.041,0.447,2.029,0.92,2.918
		c0.176,0.33,0.381,0.639,0.598,0.941C12.473,25.1,11.58,25.164,10.633,25.164z M20.297,26.922c-1.98,0-3.766-0.848-5.021-2.197
		c-0.283-0.299-0.537-0.627-0.764-0.98c-0.686-1.066-1.086-2.334-1.086-3.693c0-0.018,0.004-0.037,0.004-0.057
		c0.002-0.4,0.041-0.791,0.111-1.17c0.062-0.348,0.152-0.688,0.27-1.02c0.836-2.422,2.99-4.229,5.607-4.57
		c0.289-0.035,0.584-0.059,0.879-0.059c0.088,0,0.174,0.012,0.258,0.012c3.67,0.139,6.617,3.158,6.617,6.863
		C27.172,23.84,24.088,26.922,20.297,26.922z"/>
	<rect x="21.401" y="17.102" width="0.354" height="5.97"/>
	<rect x="20.369" y="16.341" width="0.896" height="5.973"/>
	<rect x="19.803" y="15.548" width="0.443" height="5.975"/>
	<polygon points="16.736,22.516 17.564,23.346 19.352,22.564 17.512,20.729 	"/>
	<polygon points="16.092,23.99 17.33,23.451 16.631,22.752 	"/>
	<rect x="22.272" y="15.909" width="2.595" height="1.21"/>
	<g>
	</g>
	<g>
	</g>
	<g>
	</g>
	<g>
	</g>
	<g>
	</g>
	<g>
	</g>
	<g>
	</g>
	<g>
	</g>
	<g>
	</g>
	<g>
	</g>
	<g>
	</g>
	<g>
	</g>
	<g>
	</g>
	<g>
	</g>
	<g>
	</g>
</g>
<g>
</g>
<g>
</g>
<g>
</g>
<g>
</g>
<g>
</g>
<g>
</g>
<g>
</g>
<g>
</g>
<g>
</g>
<g>
</g>
<g>
</g>
<g>
</g>
<g>
</g>
<g>
</g>
<g>
</g>
</svg>
